<?xml version="1.0" encoding="UTF-8"?>
<svg width="142px" height="36px" viewBox="0 0 142 36" version="1.1" xmlns="http://www.w3.org/2000/svg" xmlns:xlink="http://www.w3.org/1999/xlink">
    <!-- Generator: Sketch 54.1 (76490) - https://sketchapp.com -->
    <title>Artboard Copy</title>
    <desc>Created with Sketch.</desc>
    <g id="Artboard-Copy" stroke="none" stroke-width="1" fill="none" fill-rule="evenodd">
        <text id="Esther’s" font-family="ProximaNovaSoft-Bold, Proxima Nova Soft" font-size="28.95" font-weight="bold" letter-spacing="-0.178153902" fill="#3C1A5B">
            <tspan x="40.2039406" y="34">Esther’s</tspan>
        </text>
        <g id="Vector" transform="translate(2.000000, 2.000000)" stroke-linecap="round" stroke-linejoin="round" stroke-width="3">
            <path d="M0.0012691126,24.2802974 C-0.074538562,28.4658626 3.2553024,31.9211989 7.44059512,31.9999976 L20.559406,31.9999976 C24.7446984,31.9211989 28.0745388,28.4658626 27.9987316,24.2802974 L27.1248096,14.9046617 C26.9029936,11.3700723 24.4297284,8.38068203 20.9993658,7.50095 C20.2845398,7.29300011 19.5440188,7.18662899 18.799564,7.18496228 L9.20043516,7.18496228 C8.4559804,7.18662899 7.7154602,7.29300011 7.0006342,7.50095 C3.57239232,8.38095865 1.10041736,11.3681504 0.87718974,14.9006623 L0.0012691126,24.2802974 Z" id="Vector-50" stroke="#000000"></path>
            <path d="M20.9993174,10.7768237 L20.9993174,6.73498101 C20.923839,2.94347708 17.7913387,-0.0701444883 13.9999518,0.00124251653 C10.2085649,-0.0701444883 7.07606451,2.94347708 7.00058625,6.73498101 L7.00058625,10.774824 M19.999408,22.0883833 C19.6211639,23.0275886 19.0133266,23.8568756 18.2315686,24.5002897 C15.7494928,26.5228213 12.1806628,26.4968007 9.728339,24.438292 C8.95723141,23.7832739 8.36308815,22.944966 8.00049561,22.0003867 M8.00049561,16.00062 L8.00049561,18.0005422 M19.999408,16.00062 L19.999408,18.0005422" id="Vector-51" stroke="#2D14F4"></path>
        </g>
    </g>
</svg>