<?xml version="1.0" encoding="UTF-8"?>
<svg width="105px" height="34px" viewBox="0 0 105 34" version="1.1" xmlns="http://www.w3.org/2000/svg" xmlns:xlink="http://www.w3.org/1999/xlink">
    <!-- Generator: Sketch 54.1 (76490) - https://sketchapp.com -->
    <title>Artboard Copy</title>
    <desc>Created with Sketch.</desc>
    <g id="Artboard-Copy" stroke="none" stroke-width="1" fill="none" fill-rule="evenodd">
        <text id="esther" font-family="Gilroy-Regular" font-size="23.16" font-weight="normal" letter-spacing="0.879999995" fill="#3C1A5B">
            <tspan x="35.10018" y="28">esther</tspan>
        </text>
        <g id="Card-Line" transform="translate(15.000000, 15.000000) scale(-1, 1) translate(-15.000000, -15.000000) translate(-4.000000, -4.000000)">
            <rect id="Rectangle" x="0" y="0" width="38" height="38"></rect>
            <path d="M32.965,19.5383333 L18.4933333,5.06666667 C17.0608177,3.64368736 14.7483489,3.64368736 13.3158333,5.06666667 L5.05083333,13.3475 C4.70745698,13.6841562 4.4378584,14.0885541 4.25916667,14.535 C4.08347115,14.9786334 3.99218362,15.4511806 3.99,15.9283333 C3.9895118,16.4073009 4.08647849,16.8813602 4.275,17.3216667 C4.45003535,17.7654142 4.72027418,18.1653677 5.06666667,18.4933333 L19.5383333,32.965 C20.5599635,33.9858932 22.0900508,34.3031065 23.4333333,33.7725 C23.8756142,33.5859799 24.2785529,33.3173541 24.6208333,32.9808333 L32.9016667,24.7158333 C33.5780007,24.0368013 33.9688911,23.1247238 33.9941667,22.1666667 C34.0130904,21.1887676 33.6429073,20.2433768 32.965,19.5383333 Z M23.75,31.9358333 C23.3352631,32.3654107 22.7637793,32.6080323 22.1666667,32.6080323 C21.5695541,32.6080323 20.9980702,32.3654107 20.5833333,31.9358333 L6.08,17.4166667 C5.71138736,17.003591 5.51332351,16.4659892 5.52583333,15.9125 C5.51534445,15.6244684 5.56944412,15.3377401 5.68416667,15.0733333 C5.78740115,14.8025046 5.94348646,14.554921 6.14333333,14.345 L10.7033333,9.86416667 L28.2625,27.4391667 L23.75,31.9358333 Z M29.3391667,26.3466667 L11.685,8.77166667 L12.6666667,7.72666667 L30.305,25.3333333 L29.3391667,26.3466667 Z M31.8725,23.75 L31.3816667,24.2408333 L13.8066667,6.65 L14.25,6.15916667 C14.6654453,5.73335298 15.2385417,5.49838347 15.8333333,5.51 C16.3856564,5.51014902 16.9174302,5.71946426 17.3216667,6.09583333 L31.825,20.5833333 C32.0384354,20.7761188 32.206127,21.0141327 32.3158333,21.28 C32.4229717,21.5522037 32.4767269,21.8424817 32.4741667,22.135 C32.4887003,22.432084 32.4401342,22.7288768 32.3316667,23.0058333 C32.2311171,23.2826817 32.0748399,23.5359585 31.8725,23.75 L31.8725,23.75 Z" id="Shape" fill="#1D1D1B" fill-rule="nonzero"></path>
        </g>
    </g>
</svg>