<?xml version="1.0" encoding="UTF-8"?>
<svg width="106px" height="30px" viewBox="0 0 106 30" version="1.1" xmlns="http://www.w3.org/2000/svg" xmlns:xlink="http://www.w3.org/1999/xlink">
    <!-- Generator: Sketch 54.1 (76490) - https://sketchapp.com -->
    <title>Artboard Copy</title>
    <desc>Created with Sketch.</desc>
    <g id="Artboard-Copy" stroke="none" stroke-width="1" fill="none" fill-rule="evenodd">
        <text id="esther" font-family="Gilroy-Light" font-size="23.16" font-weight="300" letter-spacing="0.880000019" fill="#3C1A5B">
            <tspan x="35.1106799" y="28.4">esther</tspan>
        </text>
        <g id="Card-Line" transform="translate(15.200000, 15.200000) scale(-1, 1) translate(-15.200000, -15.200000) translate(-4.000000, -4.000000)">
            <rect id="Rectangle" x="0" y="0" width="38.4" height="38.4"></rect>
            <path d="M33.312,19.744 L18.688,5.12 C17.2404053,3.68204196 14.9035947,3.68204196 13.456,5.12 L5.104,13.488 C4.75700916,13.8281999 4.4845727,14.2368546 4.304,14.688 C4.12645506,15.1363032 4.0342066,15.6138246 4.032,16.096 C4.03150667,16.5800093 4.12949405,17.0590587 4.32,17.504 C4.49687783,17.9524185 4.76996128,18.3565821 5.12,18.688 L19.744,33.312 C20.7763842,34.3436395 22.3225777,34.6641918 23.68,34.128 C24.1269365,33.9395165 24.5341166,33.6680631 24.88,33.328 L33.248,24.976 C33.9314534,24.2898202 34.3264584,23.3681419 34.352,22.4 C34.371123,21.4118073 33.9970432,20.456465 33.312,19.744 Z M24,32.272 C23.5808974,32.7060993 23.003398,32.9512748 22.4,32.9512748 C21.796602,32.9512748 21.2191026,32.7060993 20.8,32.272 L6.144,17.6 C5.77150723,17.1825762 5.5713585,16.6393154 5.584,16.08 C5.57340071,15.7889365 5.62806985,15.49919 5.744,15.232 C5.84832116,14.9583204 6.00604947,14.7081307 6.208,14.496 L10.816,9.968 L28.56,27.728 L24,32.272 Z M29.648,26.624 L11.808,8.864 L12.8,7.808 L30.624,25.6 L29.648,26.624 Z M32.208,24 L31.712,24.496 L13.952,6.72 L14.4,6.224 C14.8198184,5.79370406 15.3989474,5.55626119 16,5.568 C16.558137,5.56815058 17.0955085,5.77966915 17.504,6.16 L32.16,20.8 C32.3756821,20.9948148 32.5451389,21.2353341 32.656,21.504 C32.7642661,21.779069 32.8185872,22.0724026 32.816,22.368 C32.8306866,22.6682112 32.7816093,22.9681281 32.672,23.248 C32.570392,23.5277625 32.4124698,23.7837054 32.208,24 L32.208,24 Z" id="Shape" fill="#1D1D1B" fill-rule="nonzero"></path>
        </g>
    </g>
</svg>